# xmcd
#
# Track frame offsets: 
#        150
#        14865
#        27879
#        43108
#        60707
#        77903
#        94177
#        112697
#        131146
#        140453
#
# Disc length: 2421 seconds
#
# Revision: 0
# Processed by: cddbd v1.5.2PL0 Copyright (c) Steve Scherf et al.
# Submitted via: ExactAudioCopy v0.95b3
#
DISCID=8709730a
DTITLE=Sara Tindley - Lucky The Sun
DYEAR=2006
DGENRE=Country
TTITLE0=Hot For You
TTITLE1=One And Only
TTITLE2=True Believer
TTITLE3=Paulies Last Ride
TTITLE4=Rambling Ways
TTITLE5=Rain Falls
TTITLE6=Heart It Was A Desert
TTITLE7=Dirt Music
TTITLE8=Anchor Me
TTITLE9=Love Thing
EXTD=
EXTT0=
EXTT1=
EXTT2=
EXTT3=
EXTT4=
EXTT5=
EXTT6=
EXTT7=
EXTT8=
EXTT9=
PLAYORDER=
